<svg width="162" height="166" viewBox="0 0 162 166" fill="none" xmlns="http://www.w3.org/2000/svg">
<path d="M34.1538 165.495H4.03846C2.18893 165.495 0.692307 163.96 0.692307 162.064V52.2795C0.692307 48.497 3.69535 45.418 7.38461 45.418H34.1538C36.0034 45.418 37.5 46.9524 37.5 48.8487V162.064C37.5 163.96 36.0034 165.495 34.1538 165.495ZM7.38461 158.633H30.8077V52.2795H7.38135L7.38461 158.633Z" fill="white"/>
<path d="M157.962 165.495H127.846C125.997 165.495 124.5 163.96 124.5 162.064V48.8487C124.5 46.9524 125.997 45.418 127.846 45.418H154.615C158.305 45.418 161.308 48.497 161.308 52.2795V162.064C161.308 163.96 159.811 165.495 157.962 165.495ZM131.192 158.633H154.615V52.2728L131.192 52.2795V158.633Z" fill="white"/>
<path d="M127.846 165.495H34.1538C32.3043 165.495 30.8077 163.96 30.8077 162.064V4.24864C30.8077 2.35234 32.3043 0.817871 34.1538 0.817871H127.846C129.696 0.817871 131.192 2.35234 131.192 4.24864V162.064C131.192 163.96 129.696 165.495 127.846 165.495ZM37.5 158.633H124.5V7.67941H37.5V158.633Z" fill="white"/>
<path d="M97.721 165.582C95.8714 165.582 94.3748 164.047 94.3748 162.151V117.347H67.6023V162.151C67.6023 164.047 66.1057 165.582 64.2562 165.582C62.4066 165.582 60.91 164.047 60.91 162.151V113.916C60.91 112.02 62.4066 110.485 64.2562 110.485H97.721C99.5705 110.485 101.067 112.02 101.067 113.916V162.151C101.067 164.047 99.5705 165.582 97.721 165.582Z" fill="white"/>
<path d="M84.3461 17.9551H77.6538V38.5397H84.3461V17.9551Z" fill="white"/>
<path d="M91.0254 24.8164H70.9485V31.6779H91.0254V24.8164Z" fill="white"/>
<path d="M67.6056 69.4334H50.8748C49.0253 69.4334 47.5287 67.8989 47.5287 66.0026V48.8487C47.5287 46.9524 49.0253 45.418 50.8748 45.418H67.6056C69.4551 45.418 70.9517 46.9524 70.9517 48.8487V66.0026C70.9517 67.8989 69.4551 69.4334 67.6056 69.4334ZM54.221 62.5718H64.2594V52.2795H54.221V62.5718Z" fill="white"/>
<path d="M111.106 69.4334H94.3748C92.5253 69.4334 91.0287 67.8989 91.0287 66.0026V48.8487C91.0287 46.9524 92.5253 45.418 94.3748 45.418H111.106C112.955 45.418 114.452 46.9524 114.452 48.8487V66.0026C114.452 67.8989 112.955 69.4334 111.106 69.4334ZM97.721 62.5718H107.759V52.2795H97.721V62.5718Z" fill="white"/>
<path d="M67.6056 103.741H50.8748C49.0253 103.741 47.5287 102.207 47.5287 100.31V83.1564C47.5287 81.2601 49.0253 79.7256 50.8748 79.7256H67.6056C69.4551 79.7256 70.9517 81.2601 70.9517 83.1564V100.31C70.9517 102.207 69.4551 103.741 67.6056 103.741ZM54.221 96.8794H64.2594V86.5871H54.221V96.8794Z" fill="white"/>
<path d="M111.106 103.741H94.3748C92.5253 103.741 91.0287 102.207 91.0287 100.31V83.1564C91.0287 81.2601 92.5253 79.7256 94.3748 79.7256H111.106C112.955 79.7256 114.452 81.2601 114.452 83.1564V100.31C114.452 102.207 112.955 103.741 111.106 103.741ZM97.721 96.8794H107.759V86.5871H97.721V96.8794Z" fill="white"/>
<path d="M141.221 103.724H127.836V96.8626H137.875V86.5703H127.836V79.7087H141.221C143.07 79.7087 144.567 81.2432 144.567 83.1395V100.293C144.567 102.19 143.07 103.724 141.221 103.724Z" fill="white"/>
<path d="M141.221 138.032H127.836V131.17H137.875V120.878H127.836V114.017H141.221C143.07 114.017 144.567 115.551 144.567 117.447V134.601C144.567 136.498 143.07 138.032 141.221 138.032Z" fill="white"/>
<path d="M34.144 103.724H20.7594C18.9099 103.724 17.4133 102.19 17.4133 100.293V83.1395C17.4133 81.2432 18.9099 79.7087 20.7594 79.7087H34.144V86.5703H24.1056V96.8626H34.144V103.724Z" fill="white"/>
<path d="M34.144 138.032H20.7594C18.9099 138.032 17.4133 136.498 17.4133 134.601V117.447C17.4133 115.551 18.9099 114.017 20.7594 114.017H34.144V120.878H24.1056V131.17H34.144V138.032Z" fill="white"/>
<path d="M4.05154 62.4512L4.02539 69.3127L34.131 69.4334L34.1571 62.5718L4.05154 62.4512Z" fill="white"/>
<path d="M127.866 62.4512L127.84 69.3127L157.945 69.4334L157.971 62.5718L127.866 62.4512Z" fill="white"/>
</svg>
