<svg width="374" height="444" viewBox="0 0 374 444" fill="none" xmlns="http://www.w3.org/2000/svg">
<path d="M317 444H7C3.134 444 0 440.866 0 437V57C0 53.134 3.134 50 7 50H67C70.866 50 74 53.134 74 57V67C74 79.682 84.318 90 97 90H227C239.683 90 250 79.682 250 67V57C250 53.134 253.134 50 257 50H317C320.866 50 324 53.134 324 57V437C324 440.866 320.866 444 317 444ZM14 430H310V64H264V67C264 87.402 247.402 104 227 104H97C76.598 104 60 87.402 60 67V64H14V430Z" fill="white"/>
<path d="M227 104H97C76.598 104 60 87.402 60 67C60 46.598 76.598 30 97 30H121.752C126.981 12.534 143.321 0 162 0C180.68 0 197.021 12.534 202.247 30H227C247.402 30 264 46.598 264 67C264 87.402 247.402 104 227 104ZM97 44C84.318 44 74 54.318 74 67C74 79.682 84.318 90 97 90H227C239.683 90 250 79.682 250 67C250 54.318 239.683 44 227 44H196.639C193.156 44 190.202 41.439 189.709 37.992C187.752 24.314 175.84 14 162 14C148.161 14 136.249 24.314 134.29 37.992C133.796 41.439 130.844 44 127.361 44H97Z" fill="white"/>
<path d="M247 204H157C136.598 204 120 187.402 120 167C120 146.598 136.598 130 157 130H247C267.402 130 284 146.598 284 167C284 187.402 267.402 204 247 204ZM157 144C144.318 144 134 154.318 134 167C134 179.682 144.318 190 157 190H247C259.683 190 270 179.682 270 167C270 154.318 259.683 144 247 144H157Z" fill="white"/>
<path d="M67 194C63.134 194 60 190.866 60 187V147C60 143.134 63.134 140 67 140C70.866 140 74 143.134 74 147V187C74 190.866 70.866 194 67 194Z" fill="white"/>
<path d="M87 174H47C43.134 174 40 170.866 40 167C40 163.134 43.134 160 47 160H87C90.866 160 94 163.134 94 167C94 170.866 90.866 174 87 174Z" fill="white"/>
<path d="M147 324H107C103.134 324 100 320.866 100 317C100 313.134 103.134 310 107 310H147C150.866 310 154 313.134 154 317C154 320.866 150.866 324 147 324Z" fill="white"/>
<path d="M107 284H47C43.134 284 40 280.866 40 277C40 273.134 43.134 270 47 270H107C110.866 270 114 273.134 114 277C114 280.866 110.866 284 107 284Z" fill="white"/>
<path d="M277 284H147C143.134 284 140 280.866 140 277C140 273.134 143.134 270 147 270H277C280.866 270 284 273.134 284 277C284 280.866 280.866 284 277 284Z" fill="white"/>
<path d="M107 244H47C43.134 244 40 240.866 40 237C40 233.134 43.134 230 47 230H107C110.866 230 114 233.134 114 237C114 240.866 110.866 244 107 244Z" fill="white"/>
<path d="M277 244H147C143.134 244 140 240.866 140 237C140 233.134 143.134 230 147 230H277C280.866 230 284 233.134 284 237C284 240.866 280.866 244 277 244Z" fill="white"/>
<path d="M47 327C44.37 327 41.79 325.93 39.93 324.069C38.07 322.21 37 319.63 37 317C37 314.37 38.07 311.79 39.93 309.93C41.79 308.07 44.37 307 47 307C49.63 307 52.21 308.069 54.07 309.93C55.93 311.79 57 314.37 57 317C57 319.63 55.93 322.21 54.07 324.069C52.21 325.93 49.63 327 47 327Z" fill="white"/>
<path d="M147 364H107C103.134 364 100 360.866 100 357C100 353.134 103.134 350 107 350H147C150.866 350 154 353.134 154 357C154 360.866 150.866 364 147 364Z" fill="white"/>
<path d="M47 367C44.37 367 41.79 365.93 39.93 364.069C38.07 362.21 37 359.63 37 357C37 354.37 38.07 351.79 39.93 349.93C41.79 348.07 44.37 347 47 347C49.63 347 52.21 348.069 54.07 349.93C55.93 351.79 57 354.37 57 357C57 359.63 55.93 362.21 54.07 364.069C52.21 365.93 49.63 367 47 367Z" fill="white"/>
<path d="M147 404H107C103.134 404 100 400.866 100 397C100 393.134 103.134 390 107 390H147C150.866 390 154 393.134 154 397C154 400.866 150.866 404 147 404Z" fill="white"/>
<path d="M47 407C44.37 407 41.79 405.93 39.93 404.069C38.07 402.21 37 399.63 37 397C37 394.37 38.07 391.79 39.93 389.93C41.79 388.07 44.37 387 47 387C49.63 387 52.21 388.069 54.07 389.93C55.93 391.79 57 394.37 57 397C57 399.63 55.93 402.21 54.07 404.069C52.21 405.93 49.63 407 47 407Z" fill="white"/>
<path d="M77 327C74.37 327 71.79 325.93 69.93 324.069C68.07 322.21 67 319.63 67 317C67 314.37 68.07 311.79 69.93 309.93C71.79 308.07 74.37 307 77 307C79.63 307 82.21 308.069 84.07 309.93C85.93 311.79 87 314.37 87 317C87 319.63 85.93 322.21 84.07 324.069C82.21 325.93 79.63 327 77 327Z" fill="white"/>
<path d="M77 367C74.37 367 71.79 365.93 69.93 364.069C68.07 362.21 67 359.63 67 357C67 354.37 68.07 351.79 69.93 349.93C71.79 348.07 74.37 347 77 347C79.63 347 82.21 348.069 84.07 349.93C85.93 351.79 87 354.37 87 357C87 359.63 85.93 362.21 84.07 364.069C82.21 365.93 79.63 367 77 367Z" fill="white"/>
<path d="M77 407C74.37 407 71.79 405.93 69.93 404.069C68.07 402.21 67 399.63 67 397C67 394.37 68.07 391.79 69.93 389.93C71.79 388.07 74.37 387 77 387C79.63 387 82.21 388.069 84.07 389.93C85.93 391.79 87 394.37 87 397C87 399.63 85.93 402.21 84.07 404.069C82.21 405.93 79.63 407 77 407Z" fill="white"/>
<path d="M277 404H187C183.134 404 180 400.866 180 397V317C180 313.134 183.134 310 187 310H277C280.866 310 284 313.134 284 317V397C284 400.866 280.866 404 277 404ZM194 390H270V324H194V390Z" fill="white"/>
<path d="M367 414H317C313.134 414 310 410.866 310 407C310 403.134 313.134 400 317 400H360V114H317C313.134 114 310 110.866 310 107C310 103.134 313.134 100 317 100H367C370.866 100 374 103.134 374 107V407C374 410.866 370.866 414 367 414Z" fill="white"/>
</svg>
