<svg width="97" height="97" viewBox="0 0 97 97" fill="none" xmlns="http://www.w3.org/2000/svg">
<path fill-rule="evenodd" clip-rule="evenodd" d="M14.061 15.948C13.538 15.427 13.538 14.583 14.061 14.062C14.585 13.541 15.42 13.541 15.944 14.062L22.409 20.528L22.299 19.797C22.198 19.069 22.694 18.39 23.429 18.283C24.155 18.175 24.834 18.677 24.944 19.406L25.642 24.13C25.706 24.548 25.569 24.971 25.265 25.27C25.017 25.522 24.677 25.66 24.328 25.66C24.255 25.66 24.19 25.655 24.126 25.645L19.405 24.943C18.67 24.835 18.174 24.157 18.275 23.429C18.385 22.7 19.065 22.196 19.79 22.305L20.525 22.413L14.059 15.947L14.061 15.948ZM15.843 48.014C15.843 47.592 15.65 47.195 15.31 46.942L11.471 44.098C10.874 43.659 10.038 43.784 9.607 44.375C9.166 44.966 9.286 45.802 9.882 46.24L10.47 46.68H1.332C0.597 46.68 0 47.277 0 48.014C0 48.751 0.597 49.348 1.332 49.348H10.47L9.882 49.787C9.285 50.226 9.166 51.062 9.607 51.653C9.864 52.006 10.268 52.192 10.672 52.192C10.957 52.192 11.232 52.107 11.471 51.93L15.31 49.085C15.65 48.833 15.843 48.437 15.843 48.014ZM46.94 15.309C47.197 15.649 47.592 15.848 48.014 15.848C48.436 15.848 48.831 15.649 49.079 15.309L51.926 11.472C52.367 10.881 52.247 10.045 51.65 9.607C51.062 9.168 50.227 9.292 49.786 9.883L49.345 10.476V1.333C49.345 0.596 48.748 0 48.013 0C47.278 0 46.681 0.597 46.681 1.333V10.476L46.24 9.883C45.799 9.292 44.963 9.168 44.376 9.607C43.779 10.045 43.66 10.881 44.091 11.472L46.938 15.309H46.94ZM71.7 25.66C71.764 25.66 71.829 25.655 71.893 25.645L76.623 24.943C77.349 24.836 77.854 24.157 77.743 23.429C77.633 22.7 76.962 22.197 76.228 22.305L75.503 22.413L81.968 15.947C82.482 15.426 82.482 14.582 81.968 14.061C81.445 13.54 80.6 13.54 80.076 14.061L73.611 20.527L73.721 19.796C73.831 19.068 73.326 18.389 72.601 18.282C71.866 18.173 71.196 18.676 71.086 19.405L70.379 24.129C70.324 24.547 70.462 24.97 70.756 25.269C71.013 25.521 71.353 25.659 71.702 25.659L71.7 25.66ZM24.127 70.382L19.406 71.085C18.671 71.193 18.175 71.871 18.276 72.599C18.386 73.328 19.066 73.831 19.791 73.722L20.526 73.614L14.06 80.08C13.537 80.602 13.537 81.446 14.06 81.966C14.317 82.227 14.657 82.356 15.006 82.356C15.346 82.356 15.686 82.226 15.943 81.966L22.408 75.501L22.298 76.231C22.197 76.96 22.693 77.638 23.428 77.746C24.154 77.854 24.833 77.351 24.943 76.623L25.641 71.898C25.705 71.48 25.568 71.058 25.264 70.759C24.97 70.46 24.548 70.321 24.125 70.382H24.127ZM49.08 80.719C48.832 80.379 48.437 80.179 48.015 80.179C47.593 80.179 47.198 80.379 46.941 80.719L44.094 84.556C43.662 85.147 43.782 85.983 44.379 86.421C44.967 86.86 45.803 86.736 46.243 86.144L46.684 85.552V94.695C46.684 95.432 47.281 96.029 48.016 96.029C48.751 96.029 49.348 95.432 49.348 94.695V85.552L49.789 86.144C50.23 86.736 51.066 86.86 51.653 86.421C52.25 85.983 52.369 85.147 51.929 84.556L49.082 80.719H49.08ZM75.502 73.613L76.227 73.721C76.953 73.83 77.632 73.327 77.742 72.598C77.852 71.87 77.347 71.191 76.622 71.084L71.892 70.381C71.479 70.32 71.056 70.458 70.753 70.758C70.459 71.056 70.321 71.479 70.376 71.897L71.083 76.622C71.193 77.35 71.864 77.854 72.598 77.745C73.323 77.637 73.829 76.959 73.718 76.23L73.608 75.5L80.073 81.965C80.339 82.226 80.679 82.355 81.019 82.355C81.359 82.355 81.699 82.225 81.965 81.965C82.479 81.444 82.479 80.6 81.965 80.079L75.5 73.613H75.502ZM94.696 46.679H85.549L86.146 46.239C86.734 45.801 86.862 44.965 86.421 44.374C85.98 43.783 85.144 43.658 84.557 44.097L80.718 46.941C80.378 47.194 80.176 47.59 80.176 48.013C80.176 48.436 80.378 48.833 80.718 49.085L84.557 51.93C84.796 52.106 85.071 52.192 85.347 52.192C85.76 52.192 86.155 52.006 86.422 51.653C86.863 51.062 86.734 50.226 86.147 49.787L85.55 49.348H94.697C95.432 49.348 96.029 48.751 96.029 48.014C96.029 47.277 95.432 46.68 94.697 46.68L94.696 46.679ZM36.199 44.22L36.221 43.981C36.455 41.386 37.485 39.039 39.057 37.171C37.491 36.078 35.587 35.437 33.533 35.437C28.493 35.437 24.355 39.297 23.911 44.221H36.2L36.199 44.22ZM33.533 33.976C36.067 33.976 38.135 31.909 38.135 29.374C38.135 26.839 36.068 24.772 33.533 24.772C30.998 24.772 28.931 26.839 28.931 29.374C28.931 31.909 30.998 33.976 33.533 33.976ZM60.8 44.22H72.117C71.673 39.295 67.535 35.436 62.495 35.436C60.705 35.436 59.029 35.923 57.592 36.771C59.361 38.699 60.528 41.198 60.778 43.981L60.8 44.22ZM62.495 33.976C65.029 33.976 67.097 31.909 67.097 29.374C67.097 26.839 65.03 24.772 62.495 24.772C59.96 24.772 57.893 26.839 57.893 29.374C57.893 31.909 59.96 33.976 62.495 33.976ZM58.122 44.22C57.678 39.295 53.54 35.436 48.5 35.436C43.46 35.436 39.322 39.296 38.878 44.22H58.122ZM48.5 24.772C45.966 24.772 43.898 26.839 43.898 29.374C43.898 31.909 45.965 33.976 48.5 33.976C51.035 33.976 53.102 31.909 53.102 29.374C53.102 26.839 51.035 24.772 48.5 24.772ZM67.27 53.24L72.117 52.284V48.271H61.643C61.643 55.798 55.541 61.9 48.014 61.9C40.487 61.9 34.385 55.798 34.385 48.271H23.911V52.284L28.758 53.24L30.886 58.371L28.133 62.477L33.808 68.152L37.914 65.399L43.045 67.528L44.001 72.375H52.027L52.983 67.528L58.114 65.399L62.22 68.152L67.895 62.477L65.142 58.371L67.27 53.24Z" fill="white"/>
</svg>
