<svg width="110" height="135" viewBox="0 0 110 135" fill="none" xmlns="http://www.w3.org/2000/svg">
<path d="M78.352 66.9611L59.211 79.0311C57.5469 80.0819 56.5508 81.8827 56.5508 83.8514V105.316C56.5508 106.18 57.25 106.879 58.1133 106.879C58.9766 106.879 59.6758 106.18 59.6758 105.316V83.8514C59.6758 82.9647 60.125 82.1483 60.875 81.6756L80.016 69.6056C81.0394 68.9611 82.3519 69.1056 83.2074 69.965C83.723 70.4806 83.9886 71.1681 83.9574 71.8947C83.9261 72.6251 83.598 73.2853 83.0433 73.7541L72.6293 82.4924C71.9692 83.0471 71.8793 84.0315 72.434 84.6955C72.9887 85.3595 73.977 85.4455 74.6371 84.8908L85.0511 76.1525C86.0121 75.3439 86.6605 74.2384 86.9339 73.0275C86.9535 72.9806 86.9925 72.9494 87.0081 72.8986L93.9534 51.9146C94.3519 50.7115 95.5784 50.0318 96.8089 50.3208C98.098 50.6294 98.9027 51.9302 98.6019 53.2231L93.3949 75.5351C93.1489 76.5859 92.6137 77.5429 91.848 78.3046L75.703 94.3396C75.3984 94.6403 75.2304 95.0544 75.2421 95.4841L75.4765 105.359C75.496 106.211 76.1913 106.882 77.039 106.882H77.078C77.9413 106.863 78.6249 106.148 78.6014 105.285L78.3827 96.0817L94.0507 80.5197C95.2343 79.3439 96.0585 77.8635 96.4374 76.2424L101.644 53.9304C102.336 50.9695 100.492 47.9851 97.5311 47.2781C94.7108 46.6062 91.8983 48.1765 90.9881 50.9265L85.4178 67.7545C83.5233 65.86 80.617 65.5357 78.3514 66.9654L78.352 66.9611Z" fill="white"/>
<path d="M13.5625 76.2341C13.9414 77.8591 14.7656 79.3357 15.9492 80.5114L31.6172 96.0734L31.3984 105.276C31.3789 106.14 32.0625 106.855 32.9218 106.874H32.9609C33.8047 106.874 34.5 106.198 34.5234 105.351L34.7578 95.4758C34.7695 95.0461 34.6015 94.632 34.2968 94.3313L18.1518 78.2963C17.3862 77.5346 16.851 76.5775 16.6049 75.5268L11.3979 53.2148C11.0972 51.9218 11.9018 50.621 13.1909 50.3164C14.4214 50.0234 15.6479 50.707 16.0464 51.9102L22.9917 72.8942C23.0074 72.9411 23.0464 72.9762 23.066 73.0231C23.3394 74.234 23.9878 75.3395 24.9488 76.1481L35.3628 84.8864C36.0229 85.4411 37.0112 85.3552 37.5659 84.6911C38.1205 84.0309 38.0346 83.0427 37.3705 82.488L26.9565 73.7497C26.398 73.2809 26.0737 72.6208 26.0425 71.8903C26.0112 71.1637 26.2769 70.4762 26.7925 69.9606C27.648 69.1051 28.9566 68.9606 29.9839 69.6012L49.1249 81.6712C49.8749 82.1439 50.3241 82.9564 50.3241 83.847V105.312C50.3241 106.175 51.0233 106.875 51.8866 106.875C52.7499 106.875 53.4491 106.175 53.4491 105.312V83.847C53.4491 81.8782 52.4569 80.0775 50.7889 79.0306L31.6479 66.9606C29.3823 65.5309 26.476 65.8551 24.5815 67.7497L19.0112 50.9217C18.101 48.1678 15.2846 46.5975 12.4643 47.2733C9.50339 47.9803 7.65959 50.9608 8.35099 53.9217L13.558 76.2337L13.5625 76.2341Z" fill="white"/>
<path d="M31.289 48.633H44.762V62.106C44.762 62.9693 45.4612 63.6685 46.3245 63.6685H63.6725C64.5358 63.6685 65.235 62.9693 65.235 62.106V48.633H78.708C79.5713 48.633 80.2705 47.9338 80.2705 47.0705V29.7225C80.2705 28.8592 79.5713 28.16 78.708 28.16H65.235L65.2389 14.687C65.2389 13.8237 64.5397 13.1245 63.6764 13.1245H46.3284C45.4651 13.1245 44.7659 13.8237 44.7659 14.687V28.16H31.2929C30.4296 28.16 29.7304 28.8592 29.7304 29.7225V47.0705C29.7304 47.9338 30.4296 48.633 31.2929 48.633H31.289ZM32.8515 31.285H46.3245C47.1878 31.285 47.887 30.5858 47.887 29.7225L47.8909 16.2495H62.1139V29.7225C62.1139 30.5858 62.8131 31.285 63.6764 31.285H77.1494V45.508H63.6764C62.8131 45.508 62.1139 46.2072 62.1139 47.0705V60.5435H47.8909V47.0705C47.8909 46.2072 47.1917 45.508 46.3284 45.508H32.8554V31.285H32.8515Z" fill="white"/>
</svg>
