<svg width="102" height="113" viewBox="0 0 102 113" fill="none" xmlns="http://www.w3.org/2000/svg">
<path d="M18.398 16.1016H48.316C52.3472 16.1016 55.6402 19.3985 55.6402 23.4258V53.3478C55.6402 53.7697 55.6011 54.1759 55.5347 54.5822L57.8628 57.0119C62.5894 55.7228 74.5658 52.0197 78.3008 56.1291L87.1992 67.5631C89.4101 70.2154 88.7539 76.7115 90.5898 79.4851C90.9062 79.0163 91.207 78.532 91.4804 78.0515C92.0586 77.0515 92.8984 77.5749 93.1406 78.0046C94.6328 80.3015 96.5898 82.6452 98.664 84.8913C98.9023 85.1452 98.9219 85.3874 98.9219 85.7038C98.8984 89.6804 95.0703 94.2194 90.2344 97.6838C85.3282 101.199 79.0314 103.895 74.1174 103.754C73.8049 103.742 73.5353 103.594 73.3634 103.363C71.4259 100.817 70.3126 98.4338 68.7072 95.9416C68.2932 95.2932 68.6408 94.6994 69.1955 94.5041C69.7971 94.2853 70.3908 94.0549 70.9807 93.8166C70.676 93.3908 69.9495 92.4416 69.5354 92.3869C68.9417 92.3088 68.301 92.2853 67.5862 92.2658C65.6018 92.1955 63.0862 92.1056 59.2346 90.8674C59.1409 90.8401 59.0549 90.7971 58.9807 90.7424L37.8327 78.1564C34.6335 76.172 35.5671 72.6798 38.2937 70.7931C40.1765 69.4923 42.9265 68.9025 45.6101 70.09L52.946 73.3322C52.5475 71.2541 51.528 68.34 50.196 66.672L45.3991 60.6759H18.3991C14.3679 60.6759 11.0749 57.379 11.0749 53.3517V23.4257C11.0749 19.3984 14.3679 16.1015 18.3991 16.1015L18.398 16.1016ZM51.628 38.3866C51.628 40.5819 50.1007 42.4569 48.0069 42.9335V46.7265L53.6866 52.664V23.426C53.6866 20.4729 51.2647 18.0549 48.3155 18.0549H18.3975C15.4405 18.0549 13.0225 20.4768 13.0225 23.426V53.348C13.0225 56.3011 15.4444 58.7191 18.3975 58.7191H43.8275L39.2806 53.0316H37.8978C37.0931 56.5824 32.6634 57.8988 30.0619 55.2972C29.4525 54.6878 29.0072 53.9066 28.8158 53.0316H22.0385C20.2065 53.0316 18.7065 51.5394 18.7065 49.6996V42.9262C15.1635 42.1293 13.8471 37.6996 16.4448 35.0981C17.062 34.4887 17.8354 34.0434 18.7104 33.8481V27.0747C18.7104 25.2388 20.2026 23.7427 22.0424 23.7427H28.8197C29.6166 20.1919 34.0463 18.8755 36.6478 21.4771C37.265 22.0865 37.7025 22.8677 37.8978 23.7427H44.6751C46.5071 23.7427 48.0071 25.2349 48.0071 27.0747V33.8481C50.1009 34.3208 51.628 36.1952 51.628 38.3866ZM46.0538 42.953C42.4444 42.2225 41.046 37.7342 43.6866 35.0975C44.3233 34.4608 45.1436 34.0077 46.0538 33.8241V27.0741C46.0538 26.3163 45.4288 25.6913 44.6749 25.6913H37.921C37.1944 29.3007 32.7022 30.6991 30.0655 28.0585C29.4327 27.4218 28.9796 26.6054 28.7999 25.6913L22.0382 25.6874C21.2804 25.6874 20.6593 26.3124 20.6593 27.0702V33.8163C24.2687 34.5468 25.6593 39.0351 23.0226 41.6718C22.3898 42.3085 21.5695 42.7577 20.6593 42.9452V49.6913C20.6593 50.4491 21.2765 51.0702 22.0382 51.0702H28.7921C29.3507 48.289 32.2804 46.6405 34.9601 47.6249L34.0148 46.4374C31.5734 43.3827 33.3663 39.6171 36.5226 38.6796C38.1867 38.1835 40.1554 38.5155 41.796 40.2343L46.046 44.6718L46.0499 42.953L46.0538 42.953ZM48.8897 40.3007C50.585 38.6015 49.378 35.6835 46.9795 35.6835C44.5772 35.6835 43.3701 38.6015 45.0693 40.3007C46.1162 41.3515 47.8272 41.3515 48.8897 40.3007ZM31.4447 53.9137C33.14 55.6129 36.0541 54.4059 36.0541 52.0035C36.0541 49.6051 33.1361 48.4019 31.4447 50.0933C30.39 51.1519 30.39 52.8629 31.4447 53.9137ZM17.8277 36.4757C16.1285 38.1749 17.3355 41.0851 19.7379 41.0851C22.1363 41.0851 23.3473 38.171 21.6481 36.4757C20.5934 35.421 18.8785 35.421 17.8277 36.4757ZM35.2657 22.8547C33.5665 21.1594 30.6563 22.3664 30.6563 24.7688C30.6563 27.1672 33.5704 28.3704 35.2657 26.679C36.3204 25.6243 36.3204 23.9133 35.2657 22.8547ZM27.0196 64.5737C27.0196 63.2885 28.9727 63.2885 28.9727 64.5737V74.9797L33.7774 80.6203C34.1211 81.0305 34.0704 81.6437 33.668 81.9953C33.2579 82.3391 32.6446 82.2883 32.293 81.8859L27.3203 76.0421C27.1328 75.8624 27.0156 75.6163 27.0156 75.339V64.573L27.0196 64.5737ZM19.6837 64.5737C19.6837 63.2885 21.6368 63.2885 21.6368 64.5737V80.9017C21.6368 82.1869 19.6837 82.1869 19.6837 80.9017V64.5737ZM52.2187 95.6167V101.648C52.2187 101.808 52.3515 101.945 52.5156 101.945H58.5468C58.7069 101.945 58.8437 101.804 58.8437 101.648V95.6167C58.8437 95.4526 58.703 95.3198 58.5468 95.3198L52.5195 95.3159C52.3515 95.3159 52.2187 95.4487 52.2187 95.6167ZM50.2656 101.644V95.6128C50.2656 94.3706 51.2812 93.3589 52.5195 93.3589H58.5507C59.7929 93.3589 60.8046 94.3745 60.8046 95.6128V101.644C60.8046 102.886 59.789 103.898 58.5507 103.898H52.5195C51.2812 103.898 50.2656 102.882 50.2656 101.644ZM35.4846 85.507V93.3468C35.4846 93.7218 35.7971 94.0343 36.1721 94.0343H44.0119C44.3869 94.0343 44.6994 93.7218 44.6994 93.3468V85.507C44.6994 85.1359 44.3869 84.8195 44.0119 84.8195H36.1721C35.7932 84.8195 35.4846 85.132 35.4846 85.507ZM33.5315 93.3429V85.5031C33.5315 84.05 34.719 82.8703 36.1721 82.8703H44.0119C45.465 82.8703 46.6447 84.0578 46.6447 85.5031V93.3429C46.6447 94.7999 45.4572 95.9835 44.0119 95.9835H36.1721C34.719 95.9835 33.5315 94.8038 33.5315 93.3429ZM13.0315 88.2335V100.327C13.0315 101.195 13.7463 101.917 14.6213 101.917H26.7073C27.5745 101.917 28.2971 101.199 28.2971 100.327V88.2335C28.2971 87.3663 27.5783 86.6476 26.7073 86.6476L14.6173 86.6515C13.7423 86.6515 13.0315 87.3663 13.0315 88.2335ZM11.0745 100.327V88.2335C11.0745 86.2843 12.6683 84.6944 14.6175 84.6944H26.7035C28.6527 84.6944 30.2465 86.2842 30.2465 88.2335V100.327C30.2465 102.277 28.6527 103.867 26.7035 103.867H14.6175C12.6683 103.867 11.0745 102.273 11.0745 100.327ZM81.2345 47.8505C82.5197 47.8505 82.5197 49.8036 81.2345 49.8036H65.3755C65.188 49.8036 65.0161 49.7528 64.8716 49.663L58.895 46.6474C58.4106 46.4052 58.2231 45.8192 58.4653 45.3349C58.7075 44.8583 59.2934 44.663 59.7778 44.9091L65.602 47.8466L81.2345 47.8505ZM59.5005 39.8739C58.2153 39.8739 58.2153 37.9208 59.5005 37.9208H63.2974C64.5826 37.9208 64.5826 39.8739 63.2974 39.8739H59.5005ZM59.5005 26.6629C58.2153 26.6629 58.2153 24.7098 59.5005 24.7098H75.8285C77.1137 24.7098 77.1137 26.6629 75.8285 26.6629H59.5005ZM85.8835 43.5609H91.9147C93.1569 43.5609 94.1686 44.5765 94.1686 45.8187V51.8421C94.1686 53.0882 93.153 54.0999 91.9147 54.0999H85.8835C84.6413 54.0999 83.6296 53.0843 83.6296 51.8421V45.8187C83.6296 44.5765 84.6413 43.5609 85.8835 43.5609ZM91.9147 45.514H85.8835C85.7194 45.514 85.5788 45.6546 85.5788 45.8187V51.8421C85.5788 52.0061 85.7194 52.1468 85.8835 52.1468H91.9147C92.0749 52.1468 92.2116 52.0061 92.2116 51.8421V45.8187C92.2116 45.6546 92.0709 45.514 91.9147 45.514ZM68.2267 32.338H76.0665C77.5196 32.338 78.6993 33.5255 78.6993 34.9708V42.8106C78.6993 44.2676 77.5118 45.4512 76.0665 45.4512H68.2267C66.7697 45.4512 65.5861 44.2637 65.5861 42.8106V34.9708C65.5861 33.5216 66.7697 32.338 68.2267 32.338ZM76.0665 34.2872H68.2267C67.8517 34.2872 67.5392 34.6036 67.5392 34.9747V42.8145C67.5392 43.1895 67.8517 43.502 68.2267 43.502H76.0665C76.4376 43.502 76.754 43.1895 76.754 42.8145V34.9747C76.7501 34.5997 76.4376 34.2872 76.0665 34.2872ZM83.1642 16.0992H95.2582C97.2074 16.0992 98.7973 17.693 98.7973 19.6422V31.7282C98.7973 33.6774 97.2075 35.2712 95.2582 35.2712H83.1642C81.215 35.2712 79.6251 33.6774 79.6251 31.7282V19.6422C79.6251 17.693 81.2149 16.0992 83.1642 16.0992ZM95.2582 18.0523H83.1642C82.297 18.0523 81.5744 18.771 81.5744 19.6421V31.7281C81.5744 32.6031 82.2931 33.3179 83.1642 33.3179H95.2582C96.1254 33.3179 96.8441 32.6031 96.8441 31.7281L96.8402 19.6421C96.8363 18.771 96.1254 18.0523 95.2582 18.0523ZM89.3324 81.1973C87.6215 78.4864 87.3558 76.2285 87.0902 74.0332C86.8714 72.2324 86.6683 70.4785 85.5629 68.6113L76.8598 57.4393C73.477 53.7362 57.8598 59.1971 57.8128 59.0448C57.4847 59.1307 57.1175 59.0448 56.8597 58.7792L40.3947 41.5912C37.4494 38.5209 33.1369 42.2396 35.5392 45.2318L51.8052 65.5718C52.5552 66.3608 53.6958 68.9468 54.063 70.0171C54.5942 71.5288 54.9458 73.1226 55.1372 74.7944C55.2387 75.5834 54.4575 76.1303 53.7778 75.8296L44.8208 71.8608C41.4458 70.3686 37.8755 72.7358 37.7661 74.7749C37.7504 75.0913 37.8169 75.7319 38.8559 76.4976L59.9339 89.0366C63.4769 90.1655 65.8089 90.2475 67.6527 90.31C68.4222 90.3373 69.1136 90.3608 69.7894 90.4545C71.055 90.6186 72.0706 91.9311 72.8206 93.0483C79.1644 90.2788 85.2426 86.3335 89.3326 81.1963L89.3324 81.1973ZM84.0238 88.8965C80.3597 91.6074 75.9691 93.9824 70.9928 95.9121C72.149 97.8418 73.3366 100.045 74.6412 101.814C78.9654 101.775 84.5904 99.3378 89.1062 96.1035C93.4695 92.9746 96.8093 89.123 96.9734 85.9275C95.2156 84.0056 93.7078 82.2205 92.3679 80.3298C90.3288 83.4275 87.5043 86.3184 84.0238 88.8965Z" fill="white"/>
</svg>
