<svg width="94" height="88" viewBox="0 0 94 88" fill="none" xmlns="http://www.w3.org/2000/svg">
<path fill-rule="evenodd" clip-rule="evenodd" d="M28.691 67.023H41.539V64.73C41.539 64.2027 41.9687 63.773 42.496 63.773H55.344V60.2222C55.344 59.6948 55.7737 59.2651 56.3011 59.2651H69.1491V54.8549C69.1491 54.3276 69.5788 53.8979 70.1061 53.8979H74.3209L74.3092 2.14391C74.3053 1.68688 74.6295 1.27672 75.0943 1.19469L79.7427 0.358749C82.1763 -0.0514111 83.7544 1.78455 85.3365 3.62825C86.3404 4.79625 87.3443 5.96415 88.4107 6.25325L93.0709 7.50715C94.9147 8.00324 93.3014 11.6477 90.9928 13.093C85.9811 16.2297 83.2155 12.8001 78.9028 16.2414L76.2153 18.3859L76.2192 53.9059H83.8989C84.4263 53.9059 84.856 54.3356 84.856 54.863V86.746C84.856 87.2733 84.4263 87.703 83.8989 87.703H1.08694C0.559603 87.703 0.129913 87.2733 0.129913 86.746V77.5507C0.129913 77.0233 0.559603 76.5937 1.08694 76.5937H13.9349V72.8593C13.9349 72.3319 14.3646 71.9022 14.892 71.9022H27.74V67.9842C27.7361 67.453 28.1619 67.0233 28.6931 67.0233L28.691 67.023ZM91.839 9.152L87.9171 8.0973C86.2843 7.65589 85.0812 6.2614 83.8859 4.8668C82.6554 3.4332 81.4289 2.0074 80.0539 2.2379L76.2101 2.9254V15.9374C77.6945 14.7538 78.7843 13.746 80.6242 13.121C84.3195 11.8632 86.4406 13.6874 89.9797 11.4726C90.8547 10.9296 91.5304 9.9762 91.839 9.152ZM38.937 8.0543C37.8706 8.2418 37.0854 8.66758 36.4604 9.4957C34.4916 12.1129 36.6596 15.8551 39.937 15.3941C43.1987 14.9332 44.269 10.7418 41.6479 8.7691C40.9018 8.20269 39.9409 7.92148 38.937 8.0543ZM34.937 8.35117C34.0737 9.49957 33.6479 10.9723 33.8628 12.5035C34.4214 16.3238 38.4839 18.4176 41.8667 16.773C41.1831 17.5152 40.7495 18.3863 40.312 19.273C40.1401 19.6206 39.9683 19.9722 39.7729 20.3082L35.4409 25.6168L30.6011 29.1402L29.3394 30.062C29.0621 30.2808 28.8394 30.5386 28.6637 30.8238L24.3395 34.8316L22.57 34.9761C21.6637 33.2534 20.0153 31.937 18.1012 31.4644C21.359 31.4097 23.8785 28.5777 23.5465 25.3355C23.0387 20.4253 16.8199 18.5621 13.7027 22.398C11.148 25.5386 12.7105 30.2418 16.5777 31.2769C13.7183 31.2613 11.0425 33.0933 10.1675 35.8863L6.67917 47.0233C6.05026 49.035 6.35103 51.1405 7.40573 52.8319L3.96043 62.0858L0.847125 69.0702C0.444785 69.9725 0.401815 70.9608 0.686965 71.8319C1.69087 74.9061 6.11666 75.2342 7.43306 72.3085L10.7808 64.8632L13.6792 56.2382C13.976 56.246 14.269 56.2343 14.5698 56.203V56.1991L19.4721 55.7499L18.726 65.1483C18.5737 67.0545 19.933 68.7694 21.8901 68.9569C23.7456 69.1483 25.4799 67.7928 25.6831 65.9022L25.687 65.8631L27.0034 51.8361C27.2026 49.7072 25.5034 47.9806 23.4253 48.1408L20.523 48.3596L22.6558 41.3869L26.73 40.9728C27.8511 40.8595 28.7495 40.3791 29.5386 39.59L34.3745 34.7228L39.4956 30.633C39.6558 30.508 41.2104 28.8322 42.1128 27.7463L46.4566 34.8986C46.066 36.1447 45.7652 37.0783 45.4996 37.9064C43.1207 45.3244 43.0465 45.5197 45.5543 52.2734L47.5152 57.7109H47.5113C48.1597 59.5312 50.2066 60.4531 51.9761 59.8125C53.8159 59.1563 54.7652 57.168 54.148 55.3164L51.2183 46.5352C50.98 45.8282 50.9917 45.1875 51.2495 44.4844L53.3472 38.7774L53.687 38.6915L58.5268 46.379L63.687 52.9649C64.9136 54.5274 67.2065 54.6954 68.7417 53.4922C70.4565 52.1445 70.6323 49.8477 69.3511 48.2031L64.5972 42.1054L59.9644 35.289C59.3746 34.4218 59.148 33.5038 59.2652 32.457C59.4371 30.914 59.0855 29.3242 58.2652 27.9765L53.5621 20.246L55.5504 19.8983L57.7535 24.7733C58.4722 26.3631 60.2887 27.0585 61.9762 26.3163C63.566 25.6132 64.2848 23.7616 63.5817 22.1718L60.4098 15.0156C59.8278 13.707 58.4801 12.9531 57.0621 13.1679L46.6241 14.7538C45.3077 14.8984 44.3038 15.1835 43.5147 15.5663C45.7959 13.1249 45.46 9.25775 42.792 7.24995C40.3154 5.37495 36.8042 5.87457 34.937 8.35117ZM51.859 18.5932L55.9528 17.8744C56.4098 17.7963 56.8434 18.0502 57.0075 18.4643L59.4958 23.976C60.156 25.4408 62.5036 24.4408 61.8317 22.9291L58.6598 15.7729C58.4293 15.2494 57.9137 14.9643 57.3473 15.0463L46.9333 16.6283C46.8981 16.6322 46.8669 16.6361 46.8356 16.6361C43.5661 16.9916 42.8122 18.5228 42.027 20.1127C41.8825 20.4018 41.4841 21.2416 41.281 21.4799C40.6677 22.1987 36.9412 26.8861 36.6638 27.0893L31.2419 31.0346L30.2067 31.9956C30.1559 32.1166 30.1285 32.2495 30.1168 32.3862C30.0153 33.7065 31.5035 34.5542 32.527 33.7378L38.2575 29.1597C38.6013 28.8003 40.7692 26.5152 41.3903 25.5308C41.7575 24.9487 42.6481 24.9019 43.0387 25.5933L48.3043 34.2652C48.4528 34.5074 48.4762 34.7886 48.3981 35.0425H48.402C48.0465 36.187 47.6559 37.4019 47.3122 38.4761C45.07 45.48 44.9997 45.3042 47.3356 51.5931C47.8669 53.0267 48.5192 54.7845 49.3083 57.054H49.3122C49.5935 57.8782 50.527 58.2845 51.3395 57.9993C52.2028 57.7024 52.6247 56.7688 52.3356 55.9095L49.4059 47.1283C49.0348 46.015 49.0504 44.9095 49.4528 43.8119L51.738 37.5931C52.0114 36.8431 52.6638 37.0775 53.7302 36.6439C54.1833 36.4603 54.695 36.6517 54.9255 37.0697L60.1169 45.308L65.1872 51.7728C66.152 52.9603 68.156 52.2064 68.2653 50.7142C68.3004 50.2493 68.1559 49.7611 67.8434 49.3587L63.0778 43.2415C63.0583 43.2141 63.0387 43.1868 63.0231 43.1595L58.3864 36.3391C57.5388 35.0891 57.1989 33.7258 57.3669 32.2297C57.5075 30.968 57.2224 29.9953 56.6052 28.8977L51.2068 20.0188C50.8552 19.4446 51.2029 18.7024 51.8591 18.5891L51.859 18.5932ZM30.589 35.8122C29.5617 35.4879 28.757 34.6872 28.4015 33.6755L25.4327 36.4294C25.2765 36.5895 25.0616 36.6989 24.8233 36.7145L22.0616 36.9372C21.6554 36.9684 21.2608 36.738 21.1007 36.3395C20.0616 33.7457 17.0577 32.4137 14.4366 33.6715C13.296 34.2184 12.3858 35.1988 11.9913 36.4567L8.50299 47.5897C7.69829 50.1639 8.97955 52.8905 11.5069 53.8436C12.4092 54.1835 13.3975 54.4061 14.3585 54.2967V54.3007L20.5851 53.7382C21.1124 53.7811 21.5031 54.2382 21.464 54.7655L20.6281 65.2885C20.5577 66.1752 21.1359 66.9369 22.0734 67.0502C22.9015 67.1244 23.6906 66.5306 23.7804 65.6908L23.7843 65.6673L25.1007 51.6553C25.1905 50.7061 24.4757 49.9678 23.5616 50.0381L19.2686 50.3623V50.3584C18.6084 50.4092 18.0889 49.7764 18.2881 49.1318L21.0029 40.2568C21.1005 39.8779 21.4209 39.5811 21.8349 39.542L26.5419 39.0654C27.1943 38.999 27.7216 38.7022 28.1825 38.2334L30.589 35.8122ZM20.319 23.0742C17.8034 21.0312 14.0495 23.0507 14.3815 26.2812C14.7135 29.5078 18.7995 30.7265 20.8463 28.2109C22.1158 26.6484 21.8815 24.3437 20.319 23.0742ZM9.03 64.1052L11.7683 55.9372C10.6628 55.6325 9.70581 55.195 8.83471 54.4645L5.74881 62.7536C5.74099 62.7809 5.72927 62.8122 5.71365 62.8395L2.59255 69.8434C1.88943 71.4215 3.35427 72.7887 4.75275 72.3434C5.17853 72.2067 5.50666 71.9332 5.69806 71.5192L9.03 64.1052ZM13.9284 78.5032H2.04141V85.7844H13.9284V78.5032ZM27.7334 73.8118H15.8424V85.7848H27.7294L27.7334 73.8118ZM71.0534 60.2258V85.7848H82.9404V55.8158H71.0534V60.2258ZM57.2484 64.7336V85.7846H69.1354L69.1393 61.1826H57.2483L57.2484 64.7336ZM43.4474 67.9797V85.7847H55.3344V65.6907H43.4474V67.9797ZM41.5333 68.9367H29.6463V85.7847H41.5333V68.9367Z" fill="white"/>
</svg>
