<svg width="90" height="90" viewBox="0 0 90 90" fill="none" xmlns="http://www.w3.org/2000/svg">
<path fill-rule="evenodd" clip-rule="evenodd" d="M23.645 42.3L17.483 38.768C17.3035 38.6664 17.0912 38.6394 16.8919 38.6929C16.6927 38.7464 16.5225 38.8761 16.418 39.054L3.383 61.763C3.28147 61.9422 3.25455 62.1542 3.30807 62.3531C3.36159 62.5521 3.49124 62.7219 3.669 62.826L9.831 66.358C10.0106 66.4599 10.2232 66.4871 10.4226 66.4336C10.6221 66.3801 10.7925 66.2502 10.897 66.072L23.931 43.36C24.0328 43.1808 24.0599 42.9688 24.0063 42.7698C23.9528 42.5708 23.823 42.4009 23.645 42.297V42.3ZM72.517 38.768L66.354 42.3C66.1765 42.4041 66.0471 42.5738 65.9937 42.7726C65.9404 42.9713 65.9674 43.183 66.069 43.362L79.1 66.072C79.2047 66.25 79.3751 66.3797 79.5745 66.4332C79.7739 66.4867 79.9863 66.4597 80.166 66.358L86.328 62.826C86.5058 62.7219 86.6354 62.5521 86.6889 62.3531C86.7425 62.1542 86.7155 61.9422 86.614 61.763L73.582 39.051C73.4775 38.8731 73.3073 38.7434 73.1081 38.6899C72.9088 38.6364 72.6965 38.6634 72.517 38.765V38.768ZM64.894 46.79L75.55 65.354L73.984 66.254L63.328 47.685L64.894 46.785V46.79ZM40.433 80.256C40.4004 80.0673 40.3308 79.887 40.2281 79.7254C40.1255 79.5638 39.9918 79.4242 39.8348 79.3145C39.6779 79.2049 39.5008 79.1275 39.3137 79.0867C39.1266 79.0459 38.9333 79.0426 38.745 79.077C38.5202 79.1193 38.3091 79.2158 38.13 79.358L36.773 81.27L35.762 82.787C35.6019 83.0279 35.5154 83.3101 35.513 83.5994C35.5107 83.8886 35.5927 84.1722 35.7489 84.4156C35.9051 84.659 36.1289 84.8517 36.3928 84.97C36.6567 85.0883 36.9493 85.1273 37.235 85.082C37.6006 85.0124 37.9239 84.8015 38.135 84.495L40.212 81.372C40.429 81.0433 40.509 80.6425 40.433 80.256ZM34.722 79.446C33.983 80.481 33.246 81.517 32.522 82.558C32.3483 82.7817 32.1129 82.9497 31.8448 83.0414C31.5768 83.133 31.2878 83.1442 31.0134 83.0736C30.7391 83.003 30.4914 82.8537 30.3008 82.6441C30.1103 82.4346 29.9852 82.1738 29.941 81.894C29.9032 81.6667 29.9179 81.4337 29.984 81.213L34.228 75.105C34.4516 74.8139 34.7777 74.619 35.14 74.56C35.4245 74.518 35.7151 74.5603 35.9759 74.6815C36.2366 74.8028 36.4562 74.9977 36.6076 75.2422C36.7589 75.4868 36.8353 75.7703 36.8274 76.0578C36.8194 76.3453 36.7275 76.6241 36.563 76.86C36.399 77.09 36.236 77.32 36.072 77.549C35.9002 77.7234 35.744 77.9124 35.605 78.114L34.719 79.44L34.722 79.446ZM26.6 76.163L25.611 77.642C25.539 77.748 25.462 77.849 25.382 77.942L24.761 78.852C24.5425 79.1722 24.4601 79.5662 24.532 79.9472C24.6039 80.3282 24.8243 80.665 25.1445 80.8835C25.4648 81.102 25.8587 81.1844 26.2397 81.1125C26.6207 81.0406 26.9575 80.8202 27.176 80.5L27.569 79.924C27.6797 79.6784 27.8136 79.444 27.969 79.224L29.969 76.41L32.828 72.22C32.9351 72.0584 33.0089 71.877 33.0452 71.6866C33.0814 71.4961 33.0794 71.3003 33.0393 71.1106C32.9991 70.921 32.9216 70.7412 32.8113 70.5817C32.7009 70.4223 32.5599 70.2865 32.3966 70.1821C32.2332 70.0777 32.0506 70.0069 31.8596 69.9737C31.6686 69.9406 31.4729 69.9458 31.2839 69.9891C31.0949 70.0324 30.9164 70.1128 30.7588 70.2258C30.6012 70.3387 30.4677 70.4819 30.366 70.647L26.6 76.163ZM65.7 70.349C58.7 65.399 51.042 59.259 43.652 55.88C43.893 55.88 44.141 55.887 44.393 55.896C44.5714 55.9026 44.7494 55.8739 44.9167 55.8117C45.084 55.7495 45.2375 55.655 45.3683 55.5335C45.499 55.412 45.6046 55.2659 45.679 55.1036C45.7533 54.9413 45.7949 54.7659 45.8015 54.5875C45.8081 54.4091 45.7794 54.2312 45.7172 54.0638C45.655 53.8965 45.5605 53.743 45.439 53.6123C45.3175 53.4815 45.1714 53.3759 45.0091 53.3015C44.8468 53.2272 44.6714 53.1856 44.493 53.179C42.393 53.104 40.093 53.216 38.765 55.027C37.395 56.9 35.991 58.77 34.645 60.659C34.4174 60.9465 34.0887 61.1364 33.726 61.19C33.4402 61.2294 33.1491 61.1838 32.8889 61.059C32.6288 60.9342 32.4111 60.7357 32.263 60.4881C32.1148 60.2405 32.0427 59.9548 32.0557 59.6665C32.0687 59.3783 32.1662 59.1003 32.336 58.867C34.568 55.817 36.003 53.046 38.044 50.092C38.3294 49.7092 38.7035 49.4014 39.1341 49.195C39.5646 48.9886 40.0388 48.8898 40.516 48.907C43.0407 48.7547 45.5723 48.7547 48.097 48.907C51.746 49.028 53.918 49 57.497 50.162C59.0007 50.7263 60.5807 51.061 62.184 51.155L70.393 65.455C69.6532 66.3211 68.9793 67.2413 68.377 68.208C68.0992 68.6694 67.7891 69.1105 67.449 69.528C66.932 69.9194 66.3385 70.1977 65.707 70.345L65.7 70.349ZM19.436 71.841C19.142 70.75 18.71 68.987 17.982 68.268C17.6581 68.7019 17.1867 69.0025 16.6566 69.113C16.1265 69.2235 15.5743 69.1364 15.104 68.868L13.08 67.709C12.575 68.4178 11.825 68.9139 10.9751 69.1012C10.1253 69.2885 9.23616 69.1538 8.48 68.723L2.316 65.191C1.51134 64.7278 0.922854 63.9648 0.679238 63.0688C0.435623 62.1729 0.556704 61.2169 1.016 60.41L14.053 37.7C14.5164 36.895 15.2798 36.3063 16.1762 36.0627C17.0725 35.8191 18.0288 35.9403 18.836 36.4L25 39.933C25.7542 40.3678 26.32 41.0672 26.5877 41.8955C26.8555 42.7238 26.806 43.6221 26.449 44.416L28.47 45.574C28.9798 45.8667 29.3525 46.3499 29.5063 46.9173C29.66 47.4847 29.5822 48.0899 29.29 48.6L29.117 48.9C30.677 50.08 32.18 49.758 34.365 50.744C34.83 50.006 35.303 49.275 35.804 48.55C36.303 47.8422 36.9609 47.2611 37.7251 46.8535C38.4892 46.4459 39.3382 46.2231 40.204 46.203C43.1572 46.0371 46.1175 46.0434 49.07 46.222C52.2113 46.156 55.3418 46.6133 58.333 47.575L60.533 48.214C60.3682 47.7267 60.3778 47.1972 60.5602 46.7162C60.7426 46.2352 61.0865 45.8325 61.533 45.577L63.554 44.418C63.1961 43.624 63.1459 42.7254 63.413 41.8965C63.6802 41.0676 64.2458 40.3675 65 39.932L71.164 36.4C71.9712 35.9403 72.9275 35.8191 73.8239 36.0627C74.7202 36.3063 75.4836 36.895 75.947 37.7L88.982 60.41C89.4413 61.2169 89.5624 62.1729 89.3188 63.0688C89.0751 63.9648 88.4867 64.7278 87.682 65.191L81.52 68.723C80.7638 69.1538 79.8747 69.2885 79.0249 69.1012C78.175 68.9139 77.425 68.4178 76.92 67.709L74.9 68.87C74.6415 69.0178 74.3559 69.1121 74.0602 69.1471C73.7645 69.1821 73.4648 69.1572 73.1789 69.0739C72.893 68.9905 72.6269 68.8504 72.3963 68.662C72.1658 68.4735 71.9755 68.2406 71.837 67.977C71.0277 69.2564 70.1344 70.4808 69.163 71.642C68.9157 71.846 68.6525 72.0299 68.376 72.192C69.1719 72.7098 69.7679 73.4831 70.066 74.3846C70.3641 75.2861 70.3465 76.2623 70.0162 77.1525C69.6858 78.0427 69.0623 78.794 68.2483 79.2828C67.4342 79.7716 66.478 79.9688 65.537 79.842C65.4578 80.4901 65.2272 81.1105 64.864 81.653C64.4696 82.2385 63.9343 82.7154 63.3073 83.0397C62.6803 83.364 61.9817 83.5254 61.276 83.509C61.2309 84.2493 60.9893 84.9642 60.576 85.58C59.9693 86.4753 59.0412 87.1025 57.9843 87.3316C56.9274 87.5606 55.8229 87.3738 54.9 86.81C54.8047 87.2693 54.6232 87.7064 54.365 88.098L54.339 88.138C53.7147 89.0523 52.7581 89.6869 51.673 89.9065C50.5878 90.1262 49.4598 89.9136 48.529 89.314L45.3 87.2C44.133 86.273 42.265 85.875 40.886 85.261L40.368 86.035C39.7523 86.9298 38.809 87.5462 37.7422 87.7507C36.6755 87.9553 35.5711 87.7316 34.668 87.128L34.617 87.092C34.0054 86.6707 33.5165 86.0948 33.2 85.423C32.2082 85.905 31.0659 85.9745 30.023 85.6164C28.9801 85.2582 28.1214 84.5016 27.635 83.512C26.9783 83.7959 26.2597 83.9066 25.548 83.8336C24.8363 83.7606 24.1552 83.5063 23.5698 83.095C22.9843 82.6837 22.5142 82.1292 22.2041 81.4844C21.8941 80.8396 21.7546 80.1261 21.799 79.412C21.0791 79.332 20.3919 79.0683 19.8033 78.6462C19.2148 78.2241 18.7446 77.6578 18.4379 77.0016C18.1313 76.3454 17.9985 75.6215 18.0522 74.8992C18.106 74.1769 18.3446 73.4805 18.745 72.877L19.436 71.84V71.841ZM22.073 72.786L23.086 71.267C23.2501 71.0345 23.4796 70.856 23.7453 70.7543C24.011 70.6525 24.301 70.6321 24.5784 70.6955C24.8558 70.759 25.1081 70.9035 25.3032 71.1106C25.4982 71.3178 25.6273 71.5783 25.674 71.859C25.7153 72.0688 25.7122 72.2849 25.665 72.4935C25.6178 72.702 25.5275 72.8984 25.4 73.07L23.226 76.286C22.9914 76.5237 22.6809 76.6716 22.3486 76.7039C22.0162 76.7362 21.683 76.651 21.407 76.463C21.0853 76.2364 20.8634 75.8943 20.7875 75.5082C20.7117 75.122 20.7878 74.7215 21 74.39L22.069 72.79L22.073 72.786ZM19.38 65.864L27.755 51.271C29.655 52.599 31.018 52.361 32.911 53.085C32.069 54.441 31.188 55.825 30.139 57.259C29.4782 58.1496 29.1983 59.2662 29.3608 60.3632C29.5233 61.4602 30.1149 62.4477 31.0055 63.1085C31.8961 63.7693 33.0127 64.0492 34.1097 63.8867C35.2067 63.7242 36.1942 63.1326 36.855 62.242L40.363 57.448C48.976 60.665 58.547 68.879 66.915 74.488C67.0733 74.5944 67.2089 74.7312 67.3141 74.8903C67.4193 75.0494 67.492 75.2277 67.528 75.415C67.5835 75.6982 67.5539 75.9916 67.4431 76.2581C67.3322 76.5246 67.145 76.7523 66.9051 76.9127C66.6651 77.073 66.383 77.1588 66.0944 77.1592C65.8058 77.1596 65.5234 77.0747 65.283 76.915L54.6 69.769C54.4518 69.6655 54.2845 69.5927 54.1079 69.5547C53.9312 69.5166 53.7488 69.5142 53.5712 69.5476C53.3936 69.5809 53.2244 69.6493 53.0736 69.7489C52.9228 69.8484 52.7933 69.9769 52.6927 70.1271C52.5922 70.2772 52.5226 70.4459 52.488 70.6233C52.4535 70.8007 52.4546 70.9831 52.4914 71.16C52.5283 71.337 52.6 71.5047 52.7024 71.6536C52.8048 71.8025 52.9359 71.9294 53.088 72.027L62.194 78.127C62.5134 78.343 62.7347 78.6764 62.8096 79.0547C62.8845 79.433 62.807 79.8255 62.594 80.147C62.376 80.4663 62.0412 80.6872 61.6619 80.7621C61.2825 80.8369 60.8889 80.7596 60.566 80.547L49.887 73.4C49.5874 73.1995 49.2205 73.1262 48.8669 73.1963C48.5133 73.2663 48.202 73.4739 48.0015 73.7735C47.801 74.0731 47.7277 74.44 47.7978 74.7936C47.8678 75.1472 48.0754 75.4585 48.375 75.659L57.911 82.043C58.2311 82.2578 58.4536 82.5901 58.5302 82.9679C58.6068 83.3458 58.5312 83.7385 58.32 84.061C58.0988 84.3826 57.7603 84.6047 57.3772 84.6795C56.9941 84.7542 56.5969 84.6758 56.271 84.461L52.98 82.329L47.58 78.834C47.2777 78.6376 46.9097 78.5694 46.557 78.6443C46.2044 78.7192 45.8959 78.9312 45.6995 79.2335C45.5031 79.5358 45.4349 79.9038 45.5098 80.2565C45.5847 80.6092 45.7967 80.9176 46.099 81.114L51.46 84.585C51.7925 84.7865 52.0406 85.1018 52.1583 85.4723C52.276 85.8429 52.2553 86.2436 52.1 86.6L52.087 86.62C51.8643 86.9458 51.5234 87.1719 51.1367 87.2503C50.75 87.3287 50.348 87.2533 50.016 87.04L46.961 85.047C45.8465 84.26 44.6099 83.662 43.301 83.277C42.994 83.17 42.701 83.066 42.431 82.963C42.449 82.939 42.467 82.914 42.484 82.888C42.8774 82.2917 43.1134 81.6056 43.1703 80.8936C43.2272 80.1815 43.103 79.4666 42.8092 78.8155C42.5155 78.1643 42.0618 77.5981 41.4904 77.1695C40.9189 76.7408 40.2483 76.4637 39.541 76.364C39.6334 75.2677 39.2909 74.1791 38.5877 73.3331C37.8844 72.4871 36.8767 71.9515 35.782 71.842C35.879 70.9167 35.6647 69.9854 35.173 69.1956C34.6813 68.4058 33.9402 67.8025 33.067 67.4812C32.1939 67.1599 31.2385 67.1389 30.3521 67.4216C29.4657 67.7043 28.6989 68.2745 28.173 69.042L27.686 69.756C27.3506 69.2621 26.9125 68.8466 26.4016 68.5378C25.8906 68.229 25.319 68.0342 24.7258 67.9669C24.1327 67.8996 23.5319 67.9612 22.9648 68.1477C22.3977 68.3341 21.8775 68.6409 21.44 69.047C21.0982 67.8013 20.3793 66.6919 19.382 65.871L19.38 65.864ZM16.329 65.705L16.016 66.252L14.45 65.352L25.106 46.787L26.672 47.687L16.386 65.606C16.366 65.638 16.347 65.671 16.329 65.705ZM46.367 8.929L43.431 8.949L43.438 9.892C43.4573 10.218 43.3588 10.5402 43.1603 10.7996C42.9619 11.059 42.6768 11.2384 42.357 11.305C40.7652 11.6391 39.2523 12.2753 37.9 13.179C37.6397 13.3662 37.3215 13.4553 37.0018 13.4306C36.6821 13.4059 36.3815 13.269 36.153 13.044L35.428 12.329L33.368 14.417L34.09 15.129C34.3133 15.3489 34.4538 15.6392 34.4879 15.9507C34.522 16.2623 34.4475 16.576 34.277 16.839C33.3801 18.2141 32.7564 19.749 32.44 21.36C32.3804 21.6688 32.2154 21.9474 31.9732 22.1481C31.731 22.3487 31.4265 22.459 31.112 22.46L30.101 22.467L30.121 25.403L31.063 25.397C31.3891 25.3772 31.7115 25.4754 31.9711 25.6737C32.2308 25.872 32.4103 26.1572 32.477 26.477C32.811 28.0685 33.4472 29.5811 34.351 30.933C34.5378 31.1935 34.6267 31.5115 34.602 31.8311C34.5773 32.1507 34.4406 32.4513 34.216 32.68L33.5 33.4L35.588 35.46L36.3 34.738C36.5198 34.5145 36.8102 34.3739 37.1218 34.34C37.4335 34.3061 37.7473 34.381 38.01 34.552C39.3853 35.4484 40.9202 36.0717 42.531 36.388C42.8398 36.4477 43.1182 36.6128 43.3188 36.855C43.5194 37.0972 43.6298 37.4015 43.631 37.716L43.638 38.728L46.574 38.708L46.568 37.765C46.5482 37.4389 46.6464 37.1165 46.8447 36.8569C47.043 36.5972 47.3282 36.4177 47.648 36.351C49.2376 36.0181 50.7488 35.384 52.1 34.483C52.3605 34.2962 52.6785 34.2073 52.9981 34.232C53.3177 34.2567 53.6183 34.3934 53.847 34.618L54.572 35.333L56.632 33.245L55.91 32.533C55.6865 32.3132 55.5459 32.0228 55.512 31.7112C55.4781 31.3995 55.553 31.0858 55.724 30.823C56.6203 29.4471 57.2433 27.9115 57.559 26.3C57.6187 25.9912 57.7838 25.7128 58.026 25.5122C58.2682 25.3116 58.5725 25.2012 58.887 25.2H59.9L59.881 22.264L58.938 22.271C58.6118 22.2906 58.2894 22.1922 58.0298 21.9937C57.7702 21.7952 57.5906 21.5099 57.524 21.19C57.1896 19.5986 56.5535 18.0861 55.65 16.734C55.4632 16.4735 55.3743 16.1555 55.399 15.8359C55.4237 15.5163 55.5604 15.2157 55.785 14.987L56.5 14.262L54.414 12.2L53.702 12.922C53.4822 13.1455 53.1919 13.2861 52.8803 13.3202C52.5687 13.3543 52.2549 13.2797 51.992 13.109C50.617 12.2119 49.082 11.5882 47.471 11.272C47.1622 11.2123 46.8838 11.0472 46.6832 10.805C46.4826 10.5628 46.3722 10.2585 46.371 9.944L46.364 8.932L46.367 8.929ZM42.058 6.241C41.6977 6.24259 41.3529 6.38716 41.0992 6.64293C40.8454 6.8987 40.7037 7.24474 40.705 7.605L40.714 8.912C39.5225 9.25551 38.3764 9.74028 37.3 10.356L36.368 9.437C36.2408 9.31172 36.0902 9.21274 35.9247 9.14573C35.7593 9.07872 35.5822 9.045 35.4037 9.04648C35.2252 9.04797 35.0487 9.08464 34.8844 9.15439C34.72 9.22415 34.5711 9.32562 34.446 9.453L30.476 13.477C30.3507 13.6042 30.2517 13.7548 30.1847 13.9203C30.1177 14.0857 30.084 14.2628 30.0855 14.4413C30.087 14.6198 30.1236 14.7963 30.1934 14.9606C30.2632 15.125 30.3646 15.2739 30.492 15.399L31.419 16.315C30.8154 17.3986 30.3453 18.5513 30.019 19.748L28.719 19.757C28.5407 19.7577 28.3642 19.7934 28.1997 19.8623C28.0352 19.9311 27.8859 20.0317 27.7602 20.1583C27.6346 20.2848 27.5351 20.4349 27.4675 20.5999C27.3998 20.7649 27.3653 20.9417 27.366 21.12L27.404 26.773C27.4056 27.1333 27.5502 27.4781 27.8059 27.7318C28.0617 27.9856 28.4077 28.1273 28.768 28.126L30.075 28.117C30.4182 29.3081 30.9027 30.4539 31.518 31.53L30.6 32.462C30.347 32.719 30.2065 33.066 30.2093 33.4266C30.2121 33.7872 30.3581 34.132 30.615 34.385L34.639 38.354C34.7663 38.4793 34.917 38.5783 35.0825 38.6453C35.2481 38.7124 35.4252 38.7461 35.6038 38.7446C35.7824 38.7431 35.959 38.7064 36.1234 38.6367C36.2878 38.5669 36.4368 38.4654 36.562 38.338L37.477 37.411C38.5606 38.0153 39.7138 38.4854 40.911 38.811L40.92 40.111C40.9207 40.2893 40.9564 40.4658 41.0253 40.6303C41.0941 40.7948 41.1947 40.9442 41.3213 41.0698C41.4479 41.1954 41.5979 41.2949 41.7629 41.3625C41.928 41.4302 42.1047 41.4647 42.283 41.464L47.936 41.426C48.1157 41.4267 48.2938 41.3917 48.4599 41.323C48.626 41.2544 48.7769 41.1535 48.9038 41.0262C49.0306 40.8989 49.131 40.7477 49.199 40.5813C49.267 40.4149 49.3013 40.2367 49.3 40.057L49.291 38.75C50.4807 38.4065 51.6252 37.922 52.7 37.307L53.632 38.226C53.8891 38.4785 54.2359 38.6187 54.5963 38.6157C54.9567 38.6127 55.3011 38.4668 55.554 38.21L59.524 34.186C59.6493 34.0587 59.7483 33.908 59.8153 33.7425C59.8824 33.5769 59.9161 33.3998 59.9146 33.2212C59.9131 33.0426 59.8764 32.866 59.8067 32.7016C59.7369 32.5372 59.6354 32.3882 59.508 32.263L58.581 31.348C59.185 30.2643 59.6552 29.1111 59.981 27.914L61.281 27.905C61.4594 27.9045 61.6359 27.8688 61.8005 27.8C61.965 27.7312 62.1144 27.6306 62.2401 27.504C62.3657 27.3774 62.4652 27.2273 62.5328 27.0622C62.6004 26.8972 62.6348 26.7204 62.634 26.542L62.596 20.889C62.5942 20.5288 62.4495 20.1841 62.1938 19.9304C61.9381 19.6768 61.5922 19.5349 61.232 19.536L59.925 19.545C59.5812 18.3541 59.0967 17.2084 58.482 16.132L59.4 15.201C59.653 14.944 59.7935 14.597 59.7907 14.2364C59.7879 13.8758 59.642 13.531 59.385 13.278L55.361 9.308C55.1039 9.05516 54.7568 8.91481 54.3962 8.91781C54.0356 8.92081 53.6909 9.06692 53.438 9.324L52.523 10.251C51.4393 9.64697 50.2862 9.17686 49.089 8.851L49.08 7.551C49.0791 7.37233 49.0429 7.19559 48.9736 7.03092C48.9042 6.86624 48.8031 6.71688 48.6759 6.59137C48.5487 6.46587 48.398 6.36669 48.2325 6.29953C48.0669 6.23237 47.8897 6.19855 47.711 6.2L42.058 6.238V6.241ZM52.2 20.782C52.803 22.206 52.9703 23.7769 52.6805 25.296C52.3908 26.815 51.6571 28.2141 50.5722 29.3162C49.4874 30.4183 48.1001 31.1739 46.5858 31.4875C45.0715 31.8012 43.4981 31.6587 42.0648 31.0782C40.6314 30.4977 39.4024 29.5051 38.5331 28.2261C37.6639 26.9471 37.1934 25.439 37.1812 23.8926C37.1691 22.3462 37.6157 20.8309 38.4647 19.5384C39.3137 18.2458 40.527 17.234 41.951 16.631C43.8608 15.8248 46.0124 15.8091 47.9338 16.5873C49.8552 17.3655 51.3894 18.874 52.2 20.782ZM48.7 13.962C46.4288 13.1081 43.9326 13.0641 41.6327 13.8373C39.3328 14.6105 37.3701 16.1536 36.0761 18.2062C34.782 20.2587 34.2358 22.6948 34.5297 25.1034C34.8236 27.5119 35.9396 29.7453 37.6893 31.4264C39.4389 33.1075 41.715 34.1334 44.1334 34.3309C46.5517 34.5284 48.9641 33.8853 50.9633 32.5103C52.9626 31.1354 54.4261 29.1127 55.1068 26.7837C55.7876 24.4548 55.6439 21.9623 54.7 19.727C54.1455 18.408 53.3272 17.2162 52.2954 16.2248C51.2637 15.2334 50.0401 14.4634 48.7 13.962ZM68.231 30.425C68.231 30.0632 68.3747 29.7163 68.6305 29.4605C68.8863 29.2047 69.2332 29.061 69.595 29.061C69.9568 29.061 70.3037 29.2047 70.5595 29.4605C70.8153 29.7163 70.959 30.0632 70.959 30.425V32.025C70.959 32.2041 70.9237 32.3815 70.8552 32.547C70.7866 32.7125 70.6862 32.8628 70.5595 32.9895C70.4328 33.1162 70.2825 33.2166 70.117 33.2852C69.9515 33.3537 69.7741 33.389 69.595 33.389C69.4159 33.389 69.2385 33.3537 69.073 33.2852C68.9075 33.2166 68.7572 33.1162 68.6305 32.9895C68.5038 32.8628 68.4034 32.7125 68.3348 32.547C68.2663 32.3815 68.231 32.2041 68.231 32.025V30.425ZM68.231 23.375C68.231 23.0132 68.3747 22.6663 68.6305 22.4105C68.8863 22.1547 69.2332 22.011 69.595 22.011C69.9568 22.011 70.3037 22.1547 70.5595 22.4105C70.8153 22.6663 70.959 23.0132 70.959 23.375V27.134C70.959 27.3131 70.9237 27.4905 70.8552 27.656C70.7866 27.8215 70.6862 27.9718 70.5595 28.0985C70.4328 28.2252 70.2825 28.3256 70.117 28.3942C69.9515 28.4627 69.7741 28.498 69.595 28.498C69.4159 28.498 69.2385 28.4627 69.073 28.3942C68.9075 28.3256 68.7572 28.2252 68.6305 28.0985C68.5038 27.9718 68.4034 27.8215 68.3348 27.656C68.2663 27.4905 68.231 27.3131 68.231 27.134V23.375ZM81.631 37.782C81.631 37.9611 81.5957 38.1385 81.5272 38.304C81.4586 38.4695 81.3582 38.6198 81.2315 38.7465C81.1048 38.8732 80.9545 38.9736 80.789 39.0422C80.6235 39.1107 80.4461 39.146 80.267 39.146C80.0879 39.146 79.9105 39.1107 79.745 39.0422C79.5795 38.9736 79.4292 38.8732 79.3025 38.7465C79.1758 38.6198 79.0754 38.4695 79.0068 38.304C78.9383 38.1385 78.903 37.9611 78.903 37.782V15.348C78.903 14.9862 79.0467 14.6393 79.3025 14.3835C79.5583 14.1277 79.9052 13.984 80.267 13.984H82.849L74.929 3.607L67.012 13.984H69.6C69.9618 13.984 70.3087 14.1277 70.5645 14.3835C70.8203 14.6393 70.964 14.9862 70.964 15.348V19.454C70.964 19.6331 70.9287 19.8105 70.8602 19.976C70.7916 20.1415 70.6912 20.2918 70.5645 20.4185C70.4378 20.5452 70.2875 20.6456 70.122 20.7142C69.9565 20.7827 69.7791 20.818 69.6 20.818C69.4209 20.818 69.2435 20.7827 69.078 20.7142C68.9125 20.6456 68.7622 20.5452 68.6355 20.4185C68.5088 20.2918 68.4084 20.1415 68.3398 19.976C68.2713 19.8105 68.236 19.6331 68.236 19.454V16.711H64.266C64.0133 16.7089 63.7661 16.6367 63.5519 16.5024C63.3377 16.3682 63.165 16.1771 63.053 15.9506C62.941 15.724 62.894 15.4708 62.9173 15.2191C62.9406 14.9674 63.0333 14.7271 63.185 14.525L73.831 0.56C73.9567 0.390301 74.1199 0.252042 74.308 0.156081C74.4961 0.0601191 74.7039 0.00906786 74.915 0.00693608C75.1262 0.0048043 75.3349 0.0516496 75.5249 0.143794C75.7149 0.235939 75.881 0.370873 76.01 0.538L86.623 14.45C86.7954 14.6469 86.9075 14.8892 86.9459 15.1481C86.9843 15.407 86.9473 15.6714 86.8394 15.9099C86.7316 16.1483 86.5573 16.3506 86.3375 16.4927C86.1177 16.6348 85.8617 16.7105 85.6 16.711H81.63L81.631 37.782ZM19.041 30.425C19.041 30.0632 19.1847 29.7163 19.4405 29.4605C19.6963 29.2047 20.0432 29.061 20.405 29.061C20.7668 29.061 21.1137 29.2047 21.3695 29.4605C21.6253 29.7163 21.769 30.0632 21.769 30.425V32.025C21.769 32.3868 21.6253 32.7337 21.3695 32.9895C21.1137 33.2453 20.7668 33.389 20.405 33.389C20.0432 33.389 19.6963 33.2453 19.4405 32.9895C19.1847 32.7337 19.041 32.3868 19.041 32.025V30.425ZM19.041 23.375C19.041 23.0132 19.1847 22.6663 19.4405 22.4105C19.6963 22.1547 20.0432 22.011 20.405 22.011C20.7668 22.011 21.1137 22.1547 21.3695 22.4105C21.6253 22.6663 21.769 23.0132 21.769 23.375V27.134C21.769 27.4958 21.6253 27.8427 21.3695 28.0985C21.1137 28.3543 20.7668 28.498 20.405 28.498C20.0432 28.498 19.6963 28.3543 19.4405 28.0985C19.1847 27.8427 19.041 27.4958 19.041 27.134V23.375ZM11.1 37.782C11.1049 37.9642 11.0733 38.1455 11.007 38.3152C10.9407 38.485 10.8411 38.6397 10.714 38.7703C10.5869 38.9009 10.4349 39.0047 10.267 39.0755C10.0991 39.1464 9.91873 39.1829 9.7365 39.1829C9.55427 39.1829 9.37389 39.1464 9.206 39.0755C9.03812 39.0047 8.88614 38.9009 8.75904 38.7703C8.63194 38.6397 8.53229 38.485 8.46599 38.3152C8.39969 38.1455 8.36807 37.9642 8.373 37.782V16.711H4.4C4.1383 16.7105 3.88226 16.6348 3.66247 16.4927C3.44268 16.3506 3.26844 16.1483 3.16056 15.9099C3.05267 15.6714 3.01572 15.407 3.0541 15.1481C3.09248 14.8892 3.20458 14.6469 3.377 14.45L13.99 0.538C14.1191 0.370873 14.2851 0.235939 14.4751 0.143794C14.6651 0.0516496 14.8738 0.0048043 15.085 0.00693608C15.2961 0.00906786 15.5039 0.0601191 15.692 0.156081C15.8801 0.252042 16.0434 0.390301 16.169 0.56L26.82 14.522C26.9717 14.7241 27.0644 14.9644 27.0877 15.2161C27.111 15.4678 27.064 15.721 26.952 15.9476C26.84 16.1741 26.6673 16.3652 26.4531 16.4994C26.239 16.6337 25.9917 16.7059 25.739 16.708H21.769V19.451C21.769 19.8128 21.6253 20.1597 21.3695 20.4155C21.1137 20.6713 20.7668 20.815 20.405 20.815C20.0432 20.815 19.6963 20.6713 19.4405 20.4155C19.1847 20.1597 19.041 19.8128 19.041 19.451V15.348C19.041 14.9862 19.1847 14.6393 19.4405 14.3835C19.6963 14.1277 20.0432 13.984 20.405 13.984H22.988L15.071 3.607L7.155 13.984H9.737C10.0986 13.9843 10.4453 14.1281 10.7008 14.3839C10.9564 14.6396 11.1 14.9864 11.1 15.348V37.782Z" fill="white"/>
</svg>
